<svg xmlns="http://www.w3.org/2000/svg" xmlns:xlink="http://www.w3.org/1999/xlink" width="500" zoomAndPan="magnify" viewBox="0 0 375 374.999991" height="500" preserveAspectRatio="xMidYMid meet" version="1.0"><defs><clipPath id="74d121dfd2"><path d="M 84.976562 158.074219 L 301.898438 158.074219 L 301.898438 375 L 84.976562 375 Z M 84.976562 158.074219 " clip-rule="nonzero"/></clipPath><clipPath id="13b0fe4f09"><path d="M 84.976562 0 L 243.050781 0 L 243.050781 158.074219 L 84.976562 158.074219 Z M 84.976562 0 " clip-rule="nonzero"/></clipPath><clipPath id="4394c0509d"><path d="M 164.011719 0 C 120.363281 0 84.976562 35.386719 84.976562 79.039062 C 84.976562 122.6875 120.363281 158.074219 164.011719 158.074219 C 207.664062 158.074219 243.050781 122.6875 243.050781 79.039062 C 243.050781 35.386719 207.664062 0 164.011719 0 Z M 164.011719 0 " clip-rule="nonzero"/></clipPath><clipPath id="e6fad01168"><path d="M 131.902344 179.011719 L 302 179.011719 L 302 326.011719 L 131.902344 326.011719 Z M 131.902344 179.011719 " clip-rule="nonzero"/></clipPath></defs><g clip-path="url(#74d121dfd2)"><path fill="#3c58ba" d="M 84.976562 158.074219 L 301.898438 158.074219 L 301.898438 375 L 84.976562 375 Z M 84.976562 158.074219 " fill-opacity="1" fill-rule="nonzero"/></g><g clip-path="url(#13b0fe4f09)"><g clip-path="url(#4394c0509d)"><path fill="#e9a12a" d="M 84.976562 0 L 243.050781 0 L 243.050781 158.074219 L 84.976562 158.074219 Z M 84.976562 0 " fill-opacity="1" fill-rule="nonzero"/></g></g><g clip-path="url(#e6fad01168)"><path fill="#000000" d="M 131.902344 326.25 L 216.898438 179.03125 L 301.894531 326.25 Z M 131.902344 326.25 " fill-opacity="1" fill-rule="nonzero"/></g></svg>